<mxfile host="app.diagrams.net" modified="2023-11-20T01:24:30.703Z" agent="Mozilla/5.0 (Windows NT 10.0; Win64; x64) AppleWebKit/537.36 (KHTML, like Gecko) Chrome/119.0.0.0 Safari/537.36" version="21.6.9" etag="Kir8cVI9w0ZSNab7_sGs" type="github">
  <diagram name="Page-1" id="SMyL4ynHugs7bC-ZD5EZ">
    <mxGraphModel>
      <root>
        <mxCell id="0" />
        <mxCell id="1" parent="0" />
      </root>
    </mxGraphModel>
  </diagram>
</mxfile>
